# xmcd
#
# Track frame offsets:
#	150
#	10263
#	20475
#	31481
#	42257
#	55061
#	63295
#	72782
#	85700
#	99669
#	109459
#	122329
#	134786
#	147324
#	159147
#	169420
#	180802
#	193220
#	202398
#	214032
#	223921
#	236689
#	248599
#	257489
#	270065
#
# Disc length: 3760 seconds
#
# Revision: 1
# Processed by: cddbd v1.5.2PL0 Copyright (c) Steve Scherf et al.
# Submitted via: audiograbber 1.83.01
#
DISCID=660eae19
DTITLE=Various Artist - Trains and Cars 2
DYEAR=1900
DGENRE=Blues
TTITLE0=Arkie Shibley - Hot Rod Race No.4
TTITLE1=Keep Your Motor Hot - Cowboy Sam Nichols
TTITLE2=George Stogner - Stock Car Boogie
TTITLE3=Luke McDaniel - The Automobile Song
TTITLE4=Gene Crabb with string band - Truck Stop Lucy
TTITLE5=Tex Williams - Won't You Ride In My Little Red Wagon
TTITLE6=Billy Jack Wills - Cadillac in Model "A"
TTITLE7=Ted West - Parking Worries
TTITLE8=Leroy Thompson - Your Motor Needs A Tune-Up Job
TTITLE9=Jess Willard - Truck Driver's Boogie
TTITLE10=York Brothers - Motor City Boogie
TTITLE11=Bob Newman - Haulin' Freight
TTITLE12=Dick Reinhart - Hot Rod Baby
TTITLE13=Red Foley - Hot Rod Race
TTITLE14=Terry Fell - Truck Driving Man
TTITLE15=Jimmie Dale - Good Night Cincinnati, Good Morning Tennessee
TTITLE16=Leon Payne - Lost Highway
TTITLE17=Speedy West - Speedin' West
TTITLE18=Jimmie Dolan - Hot Rod Race
TTITLE19=Arkie Shibley - Hot Rod Race No.5
TTITLE20=Howlin' Wolf - Mr. Highway Man
TTITLE21=Lightnin' Hopkins - Highway Blues
TTITLE22=Peppermint Harris - Cadillac Funeral
TTITLE23=Lowell Fulson - Highway 99
TTITLE24=Joe Lutcher - The Traffic Song
EXTD=
EXTT0=
EXTT1=
EXTT2=
EXTT3=
EXTT4=
EXTT5=
EXTT6=
EXTT7=
EXTT8=
EXTT9=
EXTT10=
EXTT11=
EXTT12=
EXTT13=
EXTT14=
EXTT15=
EXTT16=
EXTT17=
EXTT18=
EXTT19=
EXTT20=
EXTT21=
EXTT22=
EXTT23=
EXTT24=
PLAYORDER=
